<svg version="1.1" id="Layer_1" xmlns:x="ns_extend;" xmlns:i="ns_ai;" xmlns:graph="ns_graphs;" xmlns="http://www.w3.org/2000/svg" xmlns:xlink="http://www.w3.org/1999/xlink" x="0px" y="0px" viewBox="0 0 50.4 50.1" style="enable-background:new 0 0 50.4 50.1;" xml:space="preserve">
 <style type="text/css">
  .st0{fill:#FF3300;}
 </style>
 <metadata>
  <sfw xmlns="ns_sfw;">
   <slices>
   </slices>
   <sliceSourceBounds bottomLeftOrigin="true" height="50.1" width="50.4" x="300.3" y="-218.3">
   </sliceSourceBounds>
  </sfw>
 </metadata>
 <g>
  <path class="st0" d="M50.1,48L27.2,0.9c-0.1-0.3-0.3-0.5-0.5-0.7C26.4,0,26.1,0,25.8,0h-4.3c-0.3,0-0.6,0-0.9,0.2
		c-0.3,0.2-0.5,0.4-0.5,0.7L0.1,48C0,48.2,0,48.5,0,48.7s0.1,0.5,0.2,0.7c0.1,0.2,0.3,0.4,0.6,0.5C1,50,1.3,50.1,1.6,50h47.2
		C49.9,50,50.9,48.8,50.1,48z M21.9,20.7l9.9,20c0.1,0.2,0.2,0.5,0.1,0.8c0,0.3-0.1,0.5-0.2,0.7c-0.1,0.2-0.3,0.4-0.6,0.5
		c-0.2,0.1-0.5,0.2-0.8,0.2H12.2c-0.3,0-0.5-0.1-0.8-0.2c-0.2-0.1-0.4-0.3-0.6-0.5c-0.2-0.2-0.3-0.5-0.3-0.7c0-0.3,0-0.5,0-0.8
		l8.5-20c0.1-0.3,0.3-0.5,0.6-0.6c0.3-0.2,0.5-0.2,0.8-0.2c0.3,0,0.6,0.1,0.8,0.2C21.6,20.2,21.8,20.5,21.9,20.7z">
  </path>
 </g>
</svg>