<?xml version="1.0" encoding="utf-8"?>
<!-- Generator: Adobe Illustrator 26.0.1, SVG Export Plug-In . SVG Version: 6.00 Build 0)  -->
<svg version="1.1" id="Layer_1" xmlns="http://www.w3.org/2000/svg" xmlns:xlink="http://www.w3.org/1999/xlink" x="0px" y="0px"
	 viewBox="0 0 288 68.5" style="enable-background:new 0 0 288 68.5;" xml:space="preserve">
<style type="text/css">
	.st0{fill:#9FCBED;}
</style>
<g>
	<rect x="138" y="15.1" class="st0" width="38.3" height="38.3"/>
</g>
<path d="M178.2,13.2v-0.1h-0.1V0h-1.8v13.1h-40.4v40.4H0v1.8h135.9v0.1h0.1v13.1h1.8V55.4h40.4V15H288v-1.8H178.2z M176.2,53.4H138
	V15.1h38.3v38.3H176.2z M97.7,37.1h1.8l3.4,5.2l0,0h2.5l-3.6-5.4c1.8-0.3,3-1.9,3-3.8c0-2.4-1.7-3.7-4.8-3.7h-4.4v12.9h2.2
	L97.7,37.1L97.7,37.1z M97.7,31.2h2c1.5,0,1.6,0,2,0.3c0.5,0.4,0.8,0.9,0.8,1.6c0,0.7-0.2,1.2-0.7,1.6c-0.5,0.5-0.8,0.5-2.1,0.5h-2
	C97.7,35.2,97.7,31.2,97.7,31.2z M54.8,41.8c1,0.6,2.5,1,3.7,1s2.7-0.4,3.7-1c1.4-0.8,1.9-2.1,1.9-4.7v-7.7H62v8
	c0,2.3-1.2,3.5-3.5,3.5S55,39.7,55,37.4v-8h-2.1v7.7C52.9,39.6,53.5,40.9,54.8,41.8z M123.3,40.5h-6.1v-3.9h4.9v-1.8h-4.9v-3.6h5.9
	v-1.8H115v12.9h8.2L123.3,40.5L123.3,40.5z M77,38.8h5.4l1.5,3.5l0,0H86L80.7,29h-2.1l-5.2,13.2v0.1h2.2L77,38.8z M79.8,31.5
	l2.1,5.5h-4.2L79.8,31.5z M35.1,42.6c1.2,1.4,1.9,2.2,2.9,2.9c0.9,0.6,1.5,0.9,3,1.5l0,0l1.2-1.5h-0.1c-1.3-0.5-1.7-0.7-2.5-1.3
	c-0.8-0.5-1.1-0.8-1.9-1.7c3.4-0.9,5.4-3.4,5.4-6.6c0-3.9-3-6.7-7.2-6.7s-7.2,2.8-7.2,6.7c0,1.8,0.7,3.5,2,4.8
	C32.1,41.8,32.9,42.2,35.1,42.6z M36.1,31c2.8,0,4.9,2.1,4.9,4.9c0,2.8-2.1,4.9-4.9,4.9c-2.8,0-4.9-2.1-4.9-4.9
	C31.2,33.1,33.3,31,36.1,31z M258.6,39.3c-0.1-0.3-0.3-0.6-0.4-0.8l-7.2-9.1l0,0h-2.1v12.9h2v-10c0.1,0.2,0.3,0.5,0.6,0.9l7.2,9.3
	l0,0h1.9V29.4h-2V39.3z M235.4,42.3h2.2V29.4h-2.2V42.3z M14.3,40.5c-0.9,0-1.7-0.2-2.5-0.5c-0.6-0.2-1.1-0.5-2-1.2l0,0l-1.2,1.8
	l0,0c1.2,0.8,1.6,1.1,2.3,1.3c1,0.4,2.1,0.6,3.3,0.6c3.6,0,5.9-1.9,5.9-5c0-1.3-0.5-2.5-1.4-3.3c-0.6-0.5-1.5-1.1-2.8-1.8
	c-3.6-1.9-4.3-2.6-4.3-3.8c0-1.5,1.3-2.4,3.3-2.4c0.7,0,1.8,0.2,2.4,0.4c0.6,0.2,0.9,0.4,1.8,0.9l0,0l1.1-1.9l0,0
	c-1-0.6-1.4-0.8-2.2-1.1c-0.9-0.3-1.9-0.4-3-0.4c-3.5,0-5.9,1.9-5.9,4.8c0,1.9,1.1,3.3,3.8,4.7c1.2,0.7,2,1.1,2.5,1.4
	c0.2,0.1,0.3,0.2,0.4,0.2c0.7,0.4,1.2,0.9,1.5,1.4c0.2,0.3,0.3,0.7,0.3,1.2C17.6,39.6,16.4,40.5,14.3,40.5z M269.7,31.2h4.6v11.1
	h2.1V31.2h4.6v-1.8h-11.3L269.7,31.2L269.7,31.2z M218,29.2c-4.2,0-7.2,2.8-7.2,6.7s3,6.7,7.2,6.7s7.2-2.8,7.2-6.7
	S222.2,29.2,218,29.2z M218,40.8c-2.8,0-4.9-2.1-4.9-4.9c0-2.8,2.1-4.9,4.9-4.9c2.8,0,4.9,2.1,4.9,4.9
	C222.9,38.7,220.8,40.8,218,40.8z M196.5,24.5h-5.6v17.8h2.3v-6.7h0.2c1.4,0.1,1.9,0.2,2.5,0.2c3.9,0,6.4-2.3,6.4-6
	c0-1.7-0.5-2.9-1.4-3.9C199.9,24.9,198.7,24.5,196.5,24.5z M197.8,33.5c-0.6,0.2-1.3,0.3-2.3,0.3c-0.6,0-1.1,0-2.3-0.2v-7.2h3
	c1.4,0,2.2,0.2,2.7,0.7c0.6,0.6,1,1.6,1,2.7C199.9,31.6,199.1,33,197.8,33.5z"/>
</svg>
