<svg version="1.1" id="Layer_1" xmlns:x="ns_extend;" xmlns:i="ns_ai;" xmlns:graph="ns_graphs;" xmlns="http://www.w3.org/2000/svg" xmlns:xlink="http://www.w3.org/1999/xlink" x="0px" y="0px" viewBox="0 0 144 144" style="enable-background:new 0 0 144 144;" xml:space="preserve">
 <style type="text/css">
  .st0{fill:#FFFFFF;}
	.st1{fill:#00A5BD;}
 </style>
 <metadata>
  <sfw xmlns="ns_sfw;">
   <slices>
   </slices>
   <sliceSourceBounds bottomLeftOrigin="true" height="144" width="144" x="0" y="0">
   </sliceSourceBounds>
  </sfw>
 </metadata>
 <g>
  <path class="st0" d="M63,71.8c4.1-4.1,5.9-7.9,5.9-12.7c0.1-9.7-7.7-17.6-17.3-17.6c-9.3-0.1-17.1,7.2-17.6,16.5h8.9
		c0.6-4.8,5-8.1,9.7-7.5c4.4,0.6,7.6,4.3,7.6,8.7c0,2.4-0.9,4.5-3.3,7l-23,22.9v8.5h35.8v-8.6H45.8L63,71.8z">
  </path>
  <path class="st0" d="M105.8,64.6h7l7.7-7.7H95.1c-13.2,0-22.5,9-22.5,20.6c0,11.3,9.2,20.5,20.5,20.6c11.2,0.1,20.4-8.9,20.5-20.2
		C113.7,73.1,111.7,68,105.8,64.6z M93.1,89.6c-6.7,0-12.1-5.4-12.1-12.1s5.4-12.1,12.1-12.1s12.1,5.4,12.1,12.1
		S99.7,89.6,93.1,89.6z">
  </path>
  <path class="st1" d="M105.4,77.4c-0.1,6.7-5.6,12.1-12.3,12.1c-6.7,0-12.1-5.4-12.1-12.1c0-6.7,5.4-12.1,12.1-12.1
		C99.8,65.4,105.2,70.7,105.4,77.4z M144,72l-9,9l-54,54l-9,9l-9-9L9,81l-9-9l9-9L63,9l9-9l9,9l54,54L144,72z M69.6,97.6v-8.6H45.8
		L63,71.8c4.1-4.1,5.9-7.9,5.9-12.7c0.1-9.7-7.7-17.6-17.3-17.6c-9.3-0.1-17.1,7.2-17.6,16.5h8.9c0.6-4.8,5-8.1,9.7-7.5
		c4.4,0.6,7.6,4.3,7.6,8.7c0,2.4-0.9,4.5-3.3,7l-23,22.9v8.5L69.6,97.6z M105.8,64.6h7l7.7-7.7H95.1c-13.2,0-22.5,9-22.5,20.6
		c0,11.3,9.2,20.5,20.5,20.6c11.2,0.1,20.4-8.9,20.5-20.2C113.7,73.1,111.7,68,105.8,64.6L105.8,64.6z">
  </path>
 </g>
</svg>