<svg
    id="Layer_1"
    height="512"
    viewBox="0 0 24 24"
    width="512"
    xmlns="http://www.w3.org/2000/svg"
    data-name="Layer 1"
>
    <path
        d="
        M18 8.5v7
        c0 .828-.672 1.5-1.5 1.5s-1.5-.672-1.5-1.5v-7
        c0-.828.672-1.5 1.5-1.5s1.5.672 1.5 1.5zM11.5 0
        
        c-.828 0-1.5.672-1.5 1.5v21
        c0 .828.672 1.5 1.5 1.5s1.5-.672 1.5-1.5v-21
        
        c0-.828-.672-1.5-1.5-1.5zM21.5 4
        c-.828 0-1.5.672-1.5 1.5v13
        c0 .828.672 1.5 1.5 1.5s1.5-.672 1.5-1.5v-13
        
        c0-.828-.672-1.5-1.5-1.5zM6.5 5
        c-.828 0-1.5.672-1.5 1.5v11
        c0 .828.672 1.5 1.5 1.5s1.5-.672 1.5-1.5v-11
        
        c0-.828-.672-1.5-1.5-1.5zM1.5 9
        c-.828 0-1.5.672-1.5 1.5v3
        c0 .828.672 1.5 1.5 1.5s1.5-.672 1.5-1.5v-3

        c0-.828-.672-1.5-1.5-1.5z"
    />
</svg>

